<svg height="1000" viewBox="0 0 1000 1000" width="1000" xmlns="http://www.w3.org/2000/svg">
    <defs>
        <style>
            .cls-1 {
            fill: none;
            }

            .cls-2 {
            fill: none;
            }

            .cls-3 {
            clip-path: url(#clip-path);
            }

            .cls-4 {
            fill: #54c5f8;
            }

            .cls-5 {
            fill: #29b6f6;
            }

            .cls-6 {
            fill: #01579b;
            }
        </style>
        <clipPath id="clip-path">
            <path class="cls-1"
                d="M521.82974,349.60916c-92.17411,0-140.68873,67.91475-140.68873,67.91475V155.55066H250.1503V834.74723H381.141V776.52641s48.51462,67.92293,140.68873,67.92293c121.28861,0,228.02-106.73136,228.02-247.42827C749.8497,456.33234,643.11835,349.60916,521.82974,349.60916ZM497.57447,728.01587c-63.06778,0-116.43346-53.36976-116.43346-130.9948,0-77.61686,53.36568-130.98662,116.43346-130.98662s116.43347,53.36976,116.43347,130.98662C614.00794,674.64611,560.64226,728.01587,497.57447,728.01587Z" />
        </clipPath>
    </defs>
    <title>Fluttrise</title>
    <rect class="cls-2" height="1037.61836" rx="12" width="1030.40499" x="-18.72244" y="-16.75499" />
    <g class="cls-3">
        <g>
            <path class="cls-4" d="M-25.928,809.505-304.67916,530.75378,601.28755-375.21294l557.47674.017Z" />
            <path class="cls-4" d="M1009.01264,322.11255l-.05974.00853v-.00853H451.51033L242.447,531.17585,521.18957,809.927Z" />
            <path class="cls-5" d="M-36.29559,809.91844,242.447,531.17585,521.1981,809.927l-278.7426,278.7426Z" />
            <path class="cls-6" d="M228.44786,1074.67052l209.06336,209.06329,973.33225-415.2012L923.03758,380.72671Z" />
        </g>
    </g>
</svg>
